<svg width="264" height="32" viewBox="0 0 264 32" fill="none" xmlns="http://www.w3.org/2000/svg">
<path d="M31.7593 31.72C27.5993 31.72 24.6713 30.92 22.9753 29.32C21.3113 27.688 20.4793 25.288 20.4793 22.12C20.4793 21.224 20.5433 20.28 20.6713 19.288C20.7993 18.264 20.9593 17.176 21.1513 16.024C21.7593 12.536 22.6393 9.64 23.7913 7.336C24.9433 5 26.5913 3.24 28.7353 2.056C30.8793 0.871998 33.7273 0.279998 37.2793 0.279998C37.9833 0.279998 38.8153 0.327998 39.7753 0.423999C40.7353 0.52 41.6633 0.664 42.5593 0.855999C43.4873 1.048 44.1913 1.272 44.6713 1.528L41.9833 8.872C41.0873 8.648 40.1273 8.488 39.1033 8.392C38.0793 8.264 37.2473 8.2 36.6073 8.2C35.1353 8.2 34.0153 8.344 33.2473 8.632C32.4793 8.92 32.0153 9.576 31.8553 10.6L29.6473 23.176C30.2873 23.304 30.8953 23.4 31.4713 23.464C32.0793 23.528 32.6553 23.56 33.1993 23.56C34.4153 23.56 35.6473 23.464 36.8953 23.272C38.1753 23.048 39.3113 22.76 40.3033 22.408L39.5353 30.472C38.4153 30.92 37.2313 31.24 35.9833 31.432C34.7673 31.624 33.3593 31.72 31.7593 31.72ZM25.3753 2.584L10.6873 1H27.5353C27.1513 1.224 26.7833 1.464 26.4313 1.72C26.0793 1.976 25.7273 2.264 25.3753 2.584ZM22.0153 7.528L4.06332 5.608H22.9753C22.8153 5.928 22.6553 6.248 22.4953 6.568C22.3353 6.856 22.1753 7.176 22.0153 7.528ZM20.4313 12.184L1.80732 10.216H21.0073L20.4313 12.184ZM19.5193 16.84L0.655315 14.824H19.8553L19.7113 15.784C19.6793 15.976 19.6473 16.168 19.6153 16.36C19.5833 16.52 19.5513 16.68 19.5193 16.84ZM19.0393 21.448L0.127315 19.432H19.1833C19.0873 20.136 19.0393 20.808 19.0393 21.448ZM19.4233 26.056L0.751315 24.04H19.0873C19.1513 24.392 19.1993 24.744 19.2313 25.096C19.2953 25.416 19.3593 25.736 19.4233 26.056ZM21.9673 30.472L5.35932 28.696H20.5273C20.9433 29.432 21.4233 30.024 21.9673 30.472ZM52.1769 31L62.8329 5.608H74.7369L76.6089 31H68.2089L68.0169 27.112H61.9689L60.4809 31H52.1769ZM60.3849 7.672L40.8009 5.608H61.2489L60.3849 7.672ZM58.4649 12.328L38.8329 10.216H59.3289L58.4649 12.328ZM64.5129 20.248H68.0169V12.952H67.3449L64.5129 20.248ZM56.4969 16.936L36.8649 14.824H57.4089L56.4969 16.936ZM54.5769 21.544L34.8969 19.432H55.4409L54.5769 21.544ZM52.6089 26.152L32.9289 24.04H53.5209L52.6089 26.152ZM50.6409 30.808L30.9609 28.696H51.5529L50.6409 30.808ZM90.8788 31L94.0468 12.808H88.7188L90.0148 5.608H108.975L107.679 12.808H102.495L99.3268 31H90.8788ZM88.0948 7.768L67.7428 5.608H88.4308L88.0948 7.768ZM87.2788 12.376L66.9268 10.216H87.6628L87.2788 12.376ZM91.8868 16.984L71.5348 14.824H92.2708L91.8868 16.984ZM91.0708 21.592L70.7188 19.432H91.4548L91.0708 21.592ZM90.2548 26.2L69.9028 24.04H90.6388L90.2548 26.2ZM89.4388 30.856L69.0868 28.696H89.8228L89.4388 30.856ZM114.483 31L125.139 5.608H137.043L138.915 31H130.515L130.323 27.112H124.275L122.787 31H114.483ZM122.691 7.672L103.107 5.608H123.555L122.691 7.672ZM120.771 12.328L101.139 10.216H121.635L120.771 12.328ZM126.819 20.248H130.323V12.952H129.651L126.819 20.248ZM118.803 16.936L99.1712 14.824H119.715L118.803 16.936ZM116.883 21.544L97.2032 19.432H117.747L116.883 21.544ZM114.915 26.152L95.2352 24.04H115.827L114.915 26.152ZM112.947 30.808L93.2672 28.696H113.859L112.947 30.808ZM151.134 31L155.55 5.608H163.998L160.782 23.944H167.982L166.734 31H151.134ZM153.63 7.768L133.278 5.608H153.966L153.63 7.768ZM152.814 12.376L132.462 10.216H153.198L152.814 12.376ZM151.998 16.984L131.646 14.824H152.382L151.998 16.984ZM151.182 21.592L130.83 19.432H151.566L151.182 21.592ZM150.366 26.2L130.014 24.04H150.75L150.366 26.2ZM149.55 30.856L129.198 28.696H149.934L149.55 30.856ZM180.949 31L182.197 23.752L178.453 5.608H186.709L187.765 14.824H188.053L192.037 5.608H200.437L190.261 23.752L189.061 31H180.949ZM177.445 7.768L157.093 5.608H177.013L177.445 7.768ZM178.405 12.376L158.053 10.216H177.973L178.405 12.376ZM179.365 16.984L159.013 14.824H178.933L179.365 16.984ZM180.325 21.592L159.973 19.432H179.845L180.325 21.592ZM180.325 26.2L159.973 24.04H180.709L180.325 26.2ZM179.509 30.856L159.157 28.696H179.893L179.509 30.856ZM217.885 31.576C216.381 31.576 214.845 31.496 213.277 31.336C211.741 31.176 210.221 30.888 208.717 30.472L211.069 23.368C213.565 24.072 215.965 24.424 218.269 24.424C218.845 24.424 219.389 24.424 219.901 24.424C220.445 24.392 221.005 24.344 221.581 24.28L221.821 22.744L218.797 22.408C216.141 22.12 214.285 21.496 213.229 20.536C212.173 19.576 211.645 18.264 211.645 16.6C211.645 16.248 211.661 15.864 211.693 15.448C211.757 15.032 211.821 14.616 211.885 14.2C212.301 11.896 212.925 10.088 213.757 8.776C214.621 7.464 215.821 6.536 217.357 5.992C218.925 5.416 220.973 5.128 223.501 5.128C226.541 5.128 229.405 5.464 232.093 6.136L229.789 13.144C228.669 12.888 227.645 12.696 226.717 12.568C225.789 12.44 224.781 12.376 223.693 12.376C223.085 12.376 222.589 12.392 222.205 12.424C221.821 12.424 221.357 12.456 220.813 12.52L220.573 13.912L222.973 14.2C225.789 14.52 227.773 15.24 228.925 16.36C230.109 17.48 230.701 18.888 230.701 20.584C230.701 20.872 230.685 21.176 230.653 21.496C230.621 21.816 230.573 22.136 230.509 22.456C230.125 24.664 229.517 26.392 228.685 27.64C227.853 28.888 226.861 29.8 225.709 30.376C224.557 30.92 223.309 31.256 221.965 31.384C220.621 31.512 219.261 31.576 217.885 31.576ZM212.749 7.624L194.029 5.608H214.717C214.333 5.896 213.965 6.2 213.613 6.52C213.293 6.84 213.005 7.208 212.749 7.624ZM210.781 12.376L190.717 10.216H211.405C211.277 10.536 211.165 10.888 211.069 11.272C210.973 11.624 210.877 11.992 210.781 12.376ZM210.205 16.984L189.853 14.824H210.301C210.269 15.112 210.237 15.416 210.205 15.736C210.205 16.024 210.205 16.312 210.205 16.6V16.984ZM212.029 21.592L191.725 19.432H210.637C210.925 20.264 211.389 20.984 212.029 21.592ZM208.621 26.152L188.605 24.04H209.293L208.621 26.152ZM207.085 30.856L187.021 28.696H207.757L207.085 30.856ZM245.894 31L249.062 12.808H243.734L245.03 5.608H263.99L262.694 12.808H257.51L254.342 31H245.894ZM243.11 7.768L222.758 5.608H243.446L243.11 7.768ZM242.294 12.376L221.942 10.216H242.678L242.294 12.376ZM246.902 16.984L226.55 14.824H247.286L246.902 16.984ZM246.086 21.592L225.734 19.432H246.47L246.086 21.592ZM245.27 26.2L224.918 24.04H245.654L245.27 26.2ZM244.454 30.856L224.102 28.696H244.838L244.454 30.856Z" fill="#00ADB5"/>
</svg>
