<svg width="44" height="48" viewBox="0 0 44 48" fill="none" xmlns="http://www.w3.org/2000/svg">
<path d="M33.9321 9.52624L21.9321 5.52624C21.829 5.49174 21.7176 5.49174 21.6146 5.52624L9.61457 9.52624C9.51522 9.5595 9.42884 9.62312 9.36761 9.70813C9.30638 9.79314 9.27339 9.89523 9.27332 9.99999V20C9.27332 20.1326 9.32599 20.2598 9.41976 20.3535C9.51353 20.4473 9.64071 20.5 9.77332 20.5C9.90592 20.5 10.0331 20.4473 10.1269 20.3535C10.2206 20.2598 10.2733 20.1326 10.2733 20V10.6937L15.7583 12.5225C15.0811 13.4321 14.619 14.4835 14.4067 15.5975C14.1944 16.7115 14.2376 17.8591 14.5328 18.9541C14.8281 20.049 15.3678 21.0627 16.1114 21.919C16.855 22.7752 17.7831 23.4517 18.8258 23.8975C16.2183 24.615 13.9508 26.2887 12.3546 28.7287C12.2885 28.8397 12.2679 28.972 12.2971 29.0978C12.3263 29.2236 12.4031 29.3333 12.5114 29.4037C12.6197 29.4742 12.751 29.5 12.8779 29.4758C13.0048 29.4515 13.1174 29.3791 13.1921 29.2737C15.1696 26.24 18.2983 24.5 21.7733 24.5C25.2483 24.5 28.3771 26.24 30.3546 29.2725C30.4293 29.3779 30.5418 29.4503 30.6687 29.4745C30.7956 29.4987 30.927 29.4729 31.0352 29.4025C31.1435 29.332 31.2203 29.2224 31.2495 29.0966C31.2788 28.9707 31.2582 28.8385 31.1921 28.7275C29.6021 26.2875 27.3283 24.6137 24.7208 23.8962C25.7636 23.4504 26.6916 22.774 27.4352 21.9177C28.1788 21.0615 28.7185 20.0478 29.0138 18.9528C29.3091 17.8579 29.3522 16.7103 29.1399 15.5962C28.9277 14.4822 28.4655 13.4309 27.7883 12.5212L33.9321 10.4725C34.0312 10.439 34.1173 10.3753 34.1784 10.2903C34.2394 10.2053 34.2722 10.1034 34.2722 9.99874C34.2722 9.89411 34.2394 9.79213 34.1784 9.70714C34.1173 9.62215 34.0312 9.55844 33.9321 9.52499V9.52624ZM28.2733 17C28.2734 18.043 28.0224 19.0707 27.5416 19.9963C27.0609 20.9219 26.3644 21.7182 25.5111 22.318C24.6578 22.9178 23.6727 23.3034 22.639 23.4423C21.6053 23.5813 20.5533 23.4694 19.5719 23.1161C18.5906 22.7629 17.7086 22.1787 17.0006 21.4128C16.2925 20.647 15.7791 19.722 15.5038 18.716C15.2285 17.7099 15.1994 16.6524 15.4188 15.6328C15.6382 14.6131 16.0998 13.6612 16.7646 12.8575L21.6146 14.4737C21.7175 14.5087 21.8291 14.5087 21.9321 14.4737L26.7821 12.8575C27.7473 14.022 28.2748 15.4874 28.2733 17ZM21.7733 13.4725L11.3546 9.99999L21.7733 6.52749L32.1921 9.99999L21.7733 13.4725Z" fill="#EEEEEE"/>
<path d="M2.81999 46.1C2.39333 46.1 1.99666 46.04 1.62999 45.92C1.26999 45.7933 0.956661 45.6167 0.689994 45.39C0.423328 45.1633 0.219994 44.9 0.0799944 44.6C0.026661 44.4933 0.0233277 44.3967 0.0699944 44.31C0.123328 44.2167 0.209994 44.1533 0.329994 44.12C0.423328 44.0933 0.513328 44.1033 0.599994 44.15C0.693328 44.1967 0.763328 44.2667 0.809994 44.36C0.909994 44.5533 1.05666 44.7267 1.24999 44.88C1.44333 45.0333 1.67333 45.1533 1.93999 45.24C2.20666 45.32 2.49999 45.36 2.81999 45.36C3.17333 45.36 3.48666 45.3033 3.75999 45.19C4.03333 45.07 4.24666 44.9 4.39999 44.68C4.55999 44.4533 4.63999 44.18 4.63999 43.86C4.63999 43.4533 4.48999 43.1033 4.18999 42.81C3.88999 42.5167 3.41999 42.33 2.77999 42.25C1.99999 42.1567 1.38999 41.9167 0.949994 41.53C0.509994 41.1367 0.289994 40.6567 0.289994 40.09C0.289994 39.6833 0.396661 39.33 0.609994 39.03C0.829994 38.73 1.12999 38.5 1.50999 38.34C1.88999 38.1733 2.32666 38.09 2.81999 38.09C3.18666 38.09 3.51999 38.15 3.81999 38.27C4.11999 38.3833 4.37999 38.5367 4.59999 38.73C4.82666 38.9167 5.00999 39.1233 5.14999 39.35C5.21666 39.4567 5.23666 39.56 5.20999 39.66C5.18999 39.76 5.13333 39.8367 5.03999 39.89C4.93999 39.9367 4.83666 39.9433 4.72999 39.91C4.62999 39.8767 4.55333 39.8133 4.49999 39.72C4.39999 39.5667 4.27333 39.4233 4.11999 39.29C3.97333 39.15 3.79333 39.04 3.57999 38.96C3.36666 38.88 3.10999 38.8367 2.80999 38.83C2.28333 38.83 1.85999 38.9433 1.53999 39.17C1.21999 39.39 1.05999 39.7133 1.05999 40.14C1.05999 40.3667 1.11999 40.5767 1.23999 40.77C1.35999 40.9567 1.55666 41.12 1.82999 41.26C2.10999 41.3933 2.48333 41.4933 2.94999 41.56C3.78333 41.68 4.39999 41.9367 4.79999 42.33C5.20666 42.7167 5.40999 43.2233 5.40999 43.85C5.40999 44.21 5.34333 44.53 5.20999 44.81C5.08333 45.09 4.89999 45.3267 4.65999 45.52C4.42666 45.7067 4.14999 45.85 3.82999 45.95C3.51666 46.05 3.17999 46.1 2.81999 46.1ZM8.78109 46C8.42775 46 8.11109 45.9167 7.83109 45.75C7.55775 45.5833 7.34109 45.3567 7.18109 45.07C7.02109 44.7767 6.94109 44.4433 6.94109 44.07V39.18C6.94109 39.0667 6.97442 38.9733 7.04109 38.9C7.11442 38.8267 7.20775 38.79 7.32109 38.79C7.43442 38.79 7.52775 38.8267 7.60109 38.9C7.67442 38.9733 7.71109 39.0667 7.71109 39.18V44.07C7.71109 44.41 7.81109 44.69 8.01109 44.91C8.21109 45.1233 8.46775 45.23 8.78109 45.23H9.05109C9.15775 45.23 9.24442 45.2667 9.31109 45.34C9.37775 45.4133 9.41109 45.5067 9.41109 45.62C9.41109 45.7333 9.37109 45.8267 9.29109 45.9C9.21109 45.9667 9.11109 46 8.99109 46H8.78109ZM6.29109 41.4C6.19109 41.4 6.10775 41.37 6.04109 41.31C5.97442 41.2433 5.94109 41.1633 5.94109 41.07C5.94109 40.97 5.97442 40.89 6.04109 40.83C6.10775 40.7633 6.19109 40.73 6.29109 40.73H8.84109C8.94109 40.73 9.02442 40.7633 9.09109 40.83C9.15775 40.89 9.19109 40.97 9.19109 41.07C9.19109 41.1633 9.15775 41.2433 9.09109 41.31C9.02442 41.37 8.94109 41.4 8.84109 41.4H6.29109ZM12.7445 46.06C12.2712 46.06 11.8479 45.9633 11.4745 45.77C11.1012 45.57 10.8045 45.28 10.5845 44.9C10.3712 44.52 10.2645 44.0567 10.2645 43.51V40.91C10.2645 40.8033 10.3012 40.7133 10.3745 40.64C10.4479 40.5667 10.5379 40.53 10.6445 40.53C10.7579 40.53 10.8512 40.5667 10.9245 40.64C10.9979 40.7133 11.0345 40.8033 11.0345 40.91V43.51C11.0345 43.9233 11.1112 44.2633 11.2645 44.53C11.4245 44.7967 11.6379 44.9967 11.9045 45.13C12.1779 45.2633 12.4845 45.33 12.8245 45.33C13.1512 45.33 13.4445 45.2667 13.7045 45.14C13.9712 45.0133 14.1812 44.84 14.3345 44.62C14.4879 44.4 14.5645 44.15 14.5645 43.87H15.1145C15.0945 44.29 14.9779 44.6667 14.7645 45C14.5579 45.3267 14.2779 45.5867 13.9245 45.78C13.5712 45.9667 13.1779 46.06 12.7445 46.06ZM14.9445 46C14.8312 46 14.7379 45.9667 14.6645 45.9C14.5979 45.8267 14.5645 45.73 14.5645 45.61V40.91C14.5645 40.7967 14.5979 40.7067 14.6645 40.64C14.7379 40.5667 14.8312 40.53 14.9445 40.53C15.0579 40.53 15.1512 40.5667 15.2245 40.64C15.2979 40.7067 15.3345 40.7967 15.3345 40.91V45.61C15.3345 45.73 15.2979 45.8267 15.2245 45.9C15.1512 45.9667 15.0579 46 14.9445 46ZM19.3221 46.05C18.7954 46.05 18.3221 45.93 17.9021 45.69C17.4821 45.4433 17.1488 45.11 16.9021 44.69C16.6621 44.27 16.5421 43.7933 16.5421 43.26C16.5421 42.7333 16.6588 42.26 16.8921 41.84C17.1321 41.42 17.4554 41.09 17.8621 40.85C18.2688 40.6033 18.7288 40.48 19.2421 40.48C19.6888 40.48 20.0921 40.5767 20.4521 40.77C20.8121 40.9567 21.1021 41.2067 21.3221 41.52V38.58C21.3221 38.46 21.3588 38.3667 21.4321 38.3C21.5054 38.2267 21.5988 38.19 21.7121 38.19C21.8254 38.19 21.9188 38.2267 21.9921 38.3C22.0654 38.3667 22.1021 38.46 22.1021 38.58V43.3C22.0888 43.82 21.9588 44.29 21.7121 44.71C21.4721 45.1233 21.1421 45.45 20.7221 45.69C20.3088 45.93 19.8421 46.05 19.3221 46.05ZM19.3221 45.35C19.7088 45.35 20.0521 45.26 20.3521 45.08C20.6588 44.8933 20.8988 44.6433 21.0721 44.33C21.2521 44.0167 21.3421 43.66 21.3421 43.26C21.3421 42.8667 21.2521 42.5133 21.0721 42.2C20.8988 41.88 20.6588 41.63 20.3521 41.45C20.0521 41.27 19.7088 41.18 19.3221 41.18C18.9421 41.18 18.5988 41.27 18.2921 41.45C17.9854 41.63 17.7421 41.88 17.5621 42.2C17.3821 42.5133 17.2921 42.8667 17.2921 43.26C17.2921 43.66 17.3821 44.0167 17.5621 44.33C17.7421 44.6433 17.9854 44.8933 18.2921 45.08C18.5988 45.26 18.9421 45.35 19.3221 45.35ZM26.0824 46.05C25.5424 46.05 25.0624 45.9333 24.6424 45.7C24.2291 45.46 23.9024 45.13 23.6624 44.71C23.4291 44.29 23.3124 43.81 23.3124 43.27C23.3124 42.7233 23.4224 42.2433 23.6424 41.83C23.8691 41.41 24.1791 41.08 24.5724 40.84C24.9657 40.6 25.4191 40.48 25.9324 40.48C26.4391 40.48 26.8791 40.5967 27.2524 40.83C27.6324 41.0567 27.9257 41.3733 28.1324 41.78C28.3391 42.1867 28.4424 42.65 28.4424 43.17C28.4424 43.2767 28.4091 43.3633 28.3424 43.43C28.2757 43.49 28.1891 43.52 28.0824 43.52H23.8324V42.88H28.1624L27.7324 43.19C27.7391 42.8033 27.6691 42.4567 27.5224 42.15C27.3757 41.8433 27.1657 41.6033 26.8924 41.43C26.6257 41.2567 26.3057 41.17 25.9324 41.17C25.5524 41.17 25.2191 41.26 24.9324 41.44C24.6457 41.62 24.4224 41.87 24.2624 42.19C24.1091 42.5033 24.0324 42.8633 24.0324 43.27C24.0324 43.6767 24.1191 44.0367 24.2924 44.35C24.4724 44.6633 24.7157 44.91 25.0224 45.09C25.3291 45.27 25.6824 45.36 26.0824 45.36C26.3224 45.36 26.5624 45.32 26.8024 45.24C27.0491 45.1533 27.2457 45.0467 27.3924 44.92C27.4657 44.86 27.5491 44.83 27.6424 44.83C27.7357 44.8233 27.8157 44.8467 27.8824 44.9C27.9691 44.98 28.0124 45.0667 28.0124 45.16C28.0191 45.2533 27.9824 45.3333 27.9024 45.4C27.6824 45.5867 27.4024 45.7433 27.0624 45.87C26.7224 45.99 26.3957 46.05 26.0824 46.05ZM34.135 46C34.0217 46 33.9283 45.9633 33.855 45.89C33.7817 45.8167 33.745 45.7267 33.745 45.62V43.02C33.745 42.6067 33.665 42.2667 33.505 42C33.3517 41.7333 33.1383 41.5333 32.865 41.4C32.5983 41.2667 32.295 41.2 31.955 41.2C31.6283 41.2 31.3317 41.2633 31.065 41.39C30.805 41.5167 30.5983 41.69 30.445 41.91C30.2917 42.13 30.215 42.38 30.215 42.66H29.665C29.6783 42.24 29.7917 41.8667 30.005 41.54C30.2183 41.2067 30.5017 40.9467 30.855 40.76C31.2083 40.5667 31.6017 40.47 32.035 40.47C32.5083 40.47 32.9317 40.57 33.305 40.77C33.6783 40.9633 33.9717 41.25 34.185 41.63C34.405 42.01 34.515 42.4733 34.515 43.02V45.62C34.515 45.7267 34.4783 45.8167 34.405 45.89C34.3317 45.9633 34.2417 46 34.135 46ZM29.835 46C29.715 46 29.6183 45.9667 29.545 45.9C29.4783 45.8267 29.445 45.7333 29.445 45.62V40.92C29.445 40.8 29.4783 40.7067 29.545 40.64C29.6183 40.5667 29.715 40.53 29.835 40.53C29.9483 40.53 30.0383 40.5667 30.105 40.64C30.1783 40.7067 30.215 40.8 30.215 40.92V45.62C30.215 45.7333 30.1783 45.8267 30.105 45.9C30.0383 45.9667 29.9483 46 29.835 46ZM38.0526 46C37.6992 46 37.3826 45.9167 37.1026 45.75C36.8292 45.5833 36.6126 45.3567 36.4526 45.07C36.2926 44.7767 36.2126 44.4433 36.2126 44.07V39.18C36.2126 39.0667 36.2459 38.9733 36.3126 38.9C36.3859 38.8267 36.4792 38.79 36.5926 38.79C36.7059 38.79 36.7992 38.8267 36.8726 38.9C36.9459 38.9733 36.9826 39.0667 36.9826 39.18V44.07C36.9826 44.41 37.0826 44.69 37.2826 44.91C37.4826 45.1233 37.7392 45.23 38.0526 45.23H38.3226C38.4292 45.23 38.5159 45.2667 38.5826 45.34C38.6492 45.4133 38.6826 45.5067 38.6826 45.62C38.6826 45.7333 38.6426 45.8267 38.5626 45.9C38.4826 45.9667 38.3826 46 38.2626 46H38.0526ZM35.5626 41.4C35.4626 41.4 35.3792 41.37 35.3126 41.31C35.2459 41.2433 35.2126 41.1633 35.2126 41.07C35.2126 40.97 35.2459 40.89 35.3126 40.83C35.3792 40.7633 35.4626 40.73 35.5626 40.73H38.1126C38.2126 40.73 38.2959 40.7633 38.3626 40.83C38.4292 40.89 38.4626 40.97 38.4626 41.07C38.4626 41.1633 38.4292 41.2433 38.3626 41.31C38.2959 41.37 38.2126 41.4 38.1126 41.4H35.5626ZM41.546 46.05C41.1527 46.05 40.7627 45.9833 40.376 45.85C39.9893 45.7167 39.676 45.5167 39.436 45.25C39.3627 45.17 39.3327 45.08 39.346 44.98C39.3593 44.88 39.4093 44.7933 39.496 44.72C39.5893 44.6533 39.686 44.6267 39.786 44.64C39.886 44.6533 39.9693 44.6967 40.036 44.77C40.196 44.9567 40.406 45.1 40.666 45.2C40.9327 45.3 41.226 45.35 41.546 45.35C42.0393 45.35 42.396 45.2667 42.616 45.1C42.836 44.9267 42.9493 44.72 42.956 44.48C42.956 44.24 42.8427 44.0433 42.616 43.89C42.3893 43.73 42.016 43.6067 41.496 43.52C40.8227 43.4133 40.3293 43.2267 40.016 42.96C39.7027 42.6933 39.546 42.3767 39.546 42.01C39.546 41.67 39.636 41.3867 39.816 41.16C39.996 40.9333 40.236 40.7633 40.536 40.65C40.836 40.5367 41.166 40.48 41.526 40.48C41.9727 40.48 42.356 40.5567 42.676 40.71C43.0027 40.8633 43.266 41.07 43.466 41.33C43.5327 41.4167 43.5593 41.5067 43.546 41.6C43.5327 41.6933 43.4793 41.77 43.386 41.83C43.306 41.8767 43.2127 41.8933 43.106 41.88C43.006 41.86 42.9193 41.81 42.846 41.73C42.6793 41.5367 42.486 41.3967 42.266 41.31C42.046 41.2167 41.7927 41.17 41.506 41.17C41.1393 41.17 40.846 41.2467 40.626 41.4C40.406 41.5467 40.296 41.7333 40.296 41.96C40.296 42.1133 40.336 42.2467 40.416 42.36C40.5027 42.4733 40.646 42.5733 40.846 42.66C41.0527 42.7467 41.3393 42.82 41.706 42.88C42.206 42.96 42.5993 43.08 42.886 43.24C43.1793 43.3933 43.386 43.5767 43.506 43.79C43.6327 43.9967 43.696 44.2233 43.696 44.47C43.696 44.7833 43.6027 45.06 43.416 45.3C43.236 45.5333 42.9827 45.7167 42.656 45.85C42.336 45.9833 41.966 46.05 41.546 46.05Z" fill="#EEEEEE"/>
</svg>
